<svg xmlns="http://www.w3.org/2000/svg" xmlns:xlink="http://www.w3.org/1999/xlink" class="ck ck-icon ck-reset_all-excluded ck-icon_inherit-color ck-button__icon iframe-icon" width="500" zoomAndPan="magnify" viewBox="0 0 375 374.999991" height="500" preserveAspectRatio="xMidYMid meet" version="1.0"><defs><g/><clipPath id="da544ec030"><path d="M 15.246094 109 L 92.496094 109 L 92.496094 259 L 15.246094 259 Z M 15.246094 109 " clip-rule="nonzero"/></clipPath><clipPath id="bf83a0fcd6"><path d="M 270 109 L 347 109 L 347 259 L 270 259 Z M 270 109 " clip-rule="nonzero"/></clipPath></defs><g fill="#000000" fill-opacity="1"><g transform="translate(75.5571, 204.750916)"><g><path d="M 11.125 0 L 6.1875 0 L 6.1875 -43.296875 L 11.125 -43.296875 Z M 11.125 0 "/></g></g></g><g fill="#000000" fill-opacity="1"><g transform="translate(92.87108, 204.750916)"><g><path d="M 26.28125 -43.296875 L 26.28125 -38.65625 L 10.828125 -38.65625 L 10.828125 -24.734375 L 25.671875 -24.734375 L 25.671875 -20.09375 L 10.828125 -20.09375 L 10.828125 0 L 5.875 0 L 5.875 -43.296875 Z M 26.28125 -43.296875 "/></g></g></g><g fill="#000000" fill-opacity="1"><g transform="translate(122.242996, 204.750916)"><g><path d="M 31.234375 0 L 15.890625 -18.546875 L 10.828125 -18.546875 L 10.828125 0 L 5.875 0 L 5.875 -43.296875 L 18.546875 -43.296875 C 21.316406 -43.296875 23.757812 -42.757812 25.875 -41.6875 C 28 -40.613281 29.648438 -39.140625 30.828125 -37.265625 C 32.003906 -35.390625 32.59375 -33.273438 32.59375 -30.921875 C 32.59375 -27.828125 31.613281 -25.175781 29.65625 -22.96875 C 27.695312 -20.769531 25.066406 -19.378906 21.765625 -18.796875 L 37.421875 0 Z M 10.828125 -38.65625 L 10.828125 -23.1875 L 18.546875 -23.1875 C 21.273438 -23.1875 23.441406 -23.882812 25.046875 -25.28125 C 26.648438 -26.6875 27.453125 -28.566406 27.453125 -30.921875 C 27.453125 -33.273438 26.648438 -35.148438 25.046875 -36.546875 C 23.441406 -37.953125 21.273438 -38.65625 18.546875 -38.65625 Z M 10.828125 -38.65625 "/></g></g></g><g fill="#000000" fill-opacity="1"><g transform="translate(159.962726, 204.750916)"><g><path d="M 40.203125 0 L 34.875 0 L 30.234375 -11.75 L 11.0625 -11.75 L 6.4375 0 L 1.234375 0 L 18.859375 -43.296875 L 22.578125 -43.296875 Z M 28.390625 -16.390625 L 20.65625 -35.9375 L 12.921875 -16.390625 Z M 28.390625 -16.390625 "/></g></g></g><g fill="#000000" fill-opacity="1"><g transform="translate(201.392579, 204.750916)"><g><path d="M 47 -43.296875 L 52.265625 0 L 47.3125 0 L 43.59375 -31.90625 L 29.375 0 L 26.90625 0 L 12.546875 -32.09375 L 8.84375 0 L 4.015625 0 L 9.28125 -43.296875 L 12.734375 -43.296875 L 28.203125 -8.59375 L 43.65625 -43.296875 Z M 47 -43.296875 "/></g></g></g><g fill="#000000" fill-opacity="1"><g transform="translate(257.662977, 204.750916)"><g><path d="M 10.828125 -20.09375 L 10.828125 -4.640625 L 29.375 -4.640625 L 29.375 0 L 5.875 0 L 5.875 -43.296875 L 28.75 -43.296875 L 28.75 -38.65625 L 10.828125 -38.65625 L 10.828125 -24.734375 L 28.140625 -24.734375 L 28.140625 -20.09375 Z M 10.828125 -20.09375 "/></g></g></g><g clip-path="url(#da544ec030)"><path fill="#000000" d="M 90.535156 108.980469 C 90.996094 108.980469 91.453125 109.15625 91.804688 109.507812 C 92.503906 110.203125 92.503906 111.335938 91.804688 112.035156 L 19.773438 183.890625 L 91.804688 255.746094 C 92.503906 256.445312 92.503906 257.578125 91.804688 258.277344 C 91.105469 258.976562 89.96875 258.976562 89.269531 258.277344 L 15.96875 185.15625 C 15.269531 184.457031 15.269531 183.324219 15.96875 182.625 L 89.269531 109.507812 C 89.617188 109.15625 90.078125 108.980469 90.535156 108.980469 Z M 90.535156 108.980469 " fill-opacity="1" fill-rule="nonzero"/></g><g clip-path="url(#bf83a0fcd6)"><path fill="#000000" d="M 271.890625 259.015625 C 271.429688 259.015625 270.972656 258.839844 270.621094 258.492188 C 269.921875 257.792969 269.921875 256.660156 270.621094 255.960938 L 342.652344 184.105469 L 270.621094 112.25 C 269.921875 111.550781 269.921875 110.417969 270.621094 109.71875 C 271.324219 109.023438 272.457031 109.023438 273.160156 109.71875 L 346.457031 182.839844 C 347.15625 183.539062 347.15625 184.671875 346.457031 185.371094 L 273.160156 258.492188 C 272.808594 258.839844 272.347656 259.015625 271.890625 259.015625 Z M 271.890625 259.015625 " fill-opacity="1" fill-rule="nonzero"/></g></svg>