<?xml version="1.0" encoding="UTF-8"?><svg width="70" height="70" xmlns="http://www.w3.org/2000/svg" viewBox="-10 -10 70 70"><rect x="-10" y="-10" width="70" height="70" fill="white"/><g id="uuid-31d1204e-63b1-4698-9f9e-2064067bbc33"><path d="M25,1.71c-4.46,0-8.1,3.63-8.1,8.1V46.29c0,1.1,.9,2,2,2s2-.9,2-2V9.8c0-2.26,1.84-4.1,4.1-4.1s4.1,1.84,4.1,4.1c0,1.1,.9,2,2,2s2-.9,2-2c0-4.46-3.63-8.1-8.1-8.1Zm6.1,9.1c-.55,0-1-.45-1-1,0-2.81-2.29-5.1-5.1-5.1s-5.1,2.29-5.1,5.1V46.29c0,.55-.45,1-1,1s-1-.45-1-1V9.8c0-3.91,3.18-7.1,7.1-7.1s7.1,3.18,7.1,7.1c0,.55-.45,1-1,1Z" stroke-width="0"/></g><g id="uuid-08f5b65d-ee9f-467d-81ba-2e08b0757c18"></g></svg>