<?xml version="1.0" encoding="UTF-8"?><svg width="70" height="70" id="uuid-a5315d30-e5e2-46c8-8f35-2a303770b157" xmlns="http://www.w3.org/2000/svg" viewBox="-10 -10 70 70"><rect x="-10" y="-10" width="70" height="70" fill="white"/><path d="M48.71,.8c-.19-.08-.4-.03-.54,.11L1.13,47.95c-.14,.14-.19,.36-.11,.54,.08,.19,.26,.31,.46,.31H48.52c.27,0,.5-.22,.5-.5V1.26c0-.2-.12-.38-.31-.46Zm-2.69,47v-1.5c0-.28-.22-.5-.5-.5s-.5,.22-.5,.5v1.5h-2v-2.5c0-.28-.22-.5-.5-.5s-.5,.22-.5,.5v2.5h-2v-1.5c0-.28-.22-.5-.5-.5s-.5,.22-.5,.5v1.5h-2v-2.5c0-.28-.22-.5-.5-.5s-.5,.22-.5,.5v2.5h-2v-1.5c0-.28-.22-.5-.5-.5s-.5,.22-.5,.5v1.5h-2v-2.5c0-.28-.22-.5-.5-.5s-.5,.22-.5,.5v2.5h-2v-1.5c0-.28-.22-.5-.5-.5s-.5,.22-.5,.5v1.5h-2v-2.5c0-.28-.22-.5-.5-.5s-.5,.22-.5,.5v2.5h-2v-1.5c0-.28-.22-.5-.5-.5s-.5,.22-.5,.5v1.5h-2v-2.5c0-.28-.22-.5-.5-.5s-.5,.22-.5,.5v2.5h-2v-1.5c0-.28-.22-.5-.5-.5s-.5,.22-.5,.5v1.5h-2v-2.5c0-.28-.22-.5-.5-.5s-.5,.22-.5,.5v2.5h-2v-1.5c0-.28-.22-.5-.5-.5s-.5,.22-.5,.5v1.5H2.69L48.02,2.47v3.55h-1.6c-.28,0-.5,.22-.5,.5s.22,.5,.5,.5h1.6v2h-2.6c-.28,0-.5,.22-.5,.5s.22,.5,.5,.5h2.6v2h-1.6c-.28,0-.5,.22-.5,.5s.22,.5,.5,.5h1.6v2h-2.6c-.28,0-.5,.22-.5,.5s.22,.5,.5,.5h2.6v2h-1.6c-.28,0-.5,.22-.5,.5s.22,.5,.5,.5h1.6v2h-2.6c-.28,0-.5,.22-.5,.5s.22,.5,.5,.5h2.6v2h-1.6c-.28,0-.5,.22-.5,.5s.22,.5,.5,.5h1.6v2h-2.6c-.28,0-.5,.22-.5,.5s.22,.5,.5,.5h2.6v2h-1.6c-.28,0-.5,.22-.5,.5s.22,.5,.5,.5h1.6v2h-2.6c-.28,0-.5,.22-.5,.5s.22,.5,.5,.5h2.6v2h-1.6c-.28,0-.5,.22-.5,.5s.22,.5,.5,.5h1.6v2h-2.6c-.28,0-.5,.22-.5,.5s.22,.5,.5,.5h2.6v2h-1.6c-.28,0-.5,.22-.5,.5s.22,.5,.5,.5h1.6v4.75h-2Z" stroke-width="0"/><path d="M39.71,22.53c-.19-.08-.4-.03-.54,.11l-16.31,16.31c-.14,.14-.19,.36-.11,.54s.26,.31,.46,.31h16.31c.28,0,.5-.22,.5-.5V22.99c0-.2-.12-.38-.31-.46Zm-.69,16.27h-14.6l14.6-14.6v14.6Z" stroke-width="0"/></svg>