<svg version="1.1" id="Layer_1" xmlns="http://www.w3.org/2000/svg" xmlns:xlink="http://www.w3.org/1999/xlink" x="0px" y="0px"
	 viewBox="0 0 531.1 626.6" enable-background="new 0 0 531.1 626.6" xml:space="preserve">
	<path fill="#FFFFFF" d="M497.7,196.4c-11.6-7.9-24.9-11.6-38.5-10.9c-0.1,0-0.2,0-0.3,0c-27.1-0.1-49.1,21.8-49.2,48.9
		c-0.1,27.1,21.8,49.1,48.9,49.2c17.1,0,32.2-9.2,41-22.5C497.9,288.7,475,310,447,310H270.1h-0.3c-26.3,0-51.1,10.5-69.8,29.1
		c-18.7,18.6-29.1,43.6-29.2,70c-0.1,27.2,12,51.1,33.1,65.5c12.8,8.7,27.6,13.2,43.2,13.2c4.2,0,8.5-0.4,12.8-1.1
		c31.3-2.6,55.9-28.7,55.9-60.7c0.1-33.7-27.2-61.1-60.9-61.2c-22.8-0.1-42.7,12.4-53.2,30.9c2.7-13.3,9.2-25.5,19.1-35.4
		c13.1-13,30.5-20.2,49-20.2h0.2H342h0c0.2,0-0.1,0,0.1,0l27.7,0.1v84.1c0,93.2-75.3,169-168.5,169c-93.2,0-168.8-75.8-168.8-169
		c0-93.2,76-169,169.2-169c8.6,0,15.6-7,15.6-15.6s-6.9-15.6-15.5-15.6c-1.6,0-3.1,0.1-4.7,0.1c-0.4,0-0.8-0.1-1.2-0.1
		c-52.7,0-95.6-42.9-95.6-95.6c0-52.7,42.9-95.6,95.6-95.6s95.6,42.9,95.6,95.6c0,8.6-1.2,17.2-3.5,25.6
		c-2.3,8.3,2.6,16.9,10.8,19.2c8.3,2.3,16.9-2.6,19.2-10.8c3.1-11.1,4.6-22.5,4.6-33.9C322.6,58.8,265.8,2,195.9,2
		C126.1,2,69.2,58.8,69.2,128.7c0,46.1,24.7,86.5,61.6,108.6C55.4,266.1,1.7,339.1,1.7,424.4c0,110.4,90.6,200.2,200.9,200.2
		s200.9-89.8,200.9-200.2v-84l43.3-0.2h0.2c45.3,0,82.3-36.7,82.4-82C529.5,233.4,517.3,209.8,497.7,196.4"/>
</svg>
