<?xml version="1.0" encoding="UTF-8"?><svg id="Layer_1" xmlns="http://www.w3.org/2000/svg" viewBox="0 0 594.54 64"><defs><style>.cls-1{fill:#fff;stroke-width:0px;}</style></defs><path class="cls-1" d="M53.88,32.07c-1.05.21-5.42,1.05-10.86,1.79-.12.02-.23-.08-.23-.2v-6c0-.1.07-.18.17-.2,5.61-.76,10.1-1.64,10.99-1.82.09-.02.16-.1.16-.2v-5.97c0-.13-.11-.22-.24-.2-1.05.21-5.42,1.05-10.86,1.79-.12.02-.23-.08-.23-.2v-2.01c0-.13-.12-.23-.25-.19-5.35,1.37-8.73.21-14.45,2.9-.05.03-.12.03-.17,0-5.72-2.69-9.1-1.53-14.45-2.9-.13-.03-.25.06-.25.19v2.01c0,.12-.11.21-.23.2-5.44-.74-9.81-1.59-10.86-1.79-.12-.02-.24.07-.24.2v5.97c0,.1.07.18.16.2.89.18,5.38,1.05,10.99,1.81.1.01.17.1.17.2v6c0,.12-.11.21-.23.2-5.44-.74-9.81-1.59-10.86-1.79-.12-.02-.24.07-.24.2v5.97c0,.1.07.18.17.2,1.29.26,10.07,1.96,18.87,2.69,2.65.29,4.01.57,5.81,1.68l1.16.71c.06.04.15.04.21,0l1.16-.71c1.79-1.1,3.14-1.38,5.75-1.67,9.03-.73,18.02-2.51,19.01-2.71.05-.01.09-.06.09-.11v-6.05c0-.13-.11-.22-.24-.2ZM40.39,21.69v16.24c0,.1-.08.19-.18.2-6.48.84-8.81.57-12.1,2.56-.06.04-.14.04-.21,0-3.29-2-5.62-1.73-12.1-2.56-.1-.01-.18-.1-.18-.2v-16.24c0-.12.11-.22.23-.2,3.47.53,7.66.03,12.05,2.63.06.04.14.04.2,0,4.4-2.6,8.59-2.1,12.05-2.63.12-.02.23.07.23.2Z"/><path class="cls-1" d="M26.94,11.47l.88-2.61c.06-.18.32-.18.38,0l.88,2.61c.03.08.1.14.19.14l2.75.02c.19,0,.27.25.12.36l-2.21,1.64c-.07.05-.1.14-.07.22l.83,2.63c.06.18-.15.33-.31.22l-2.24-1.6c-.07-.05-.16-.05-.23,0l-2.24,1.6c-.16.11-.36-.04-.31-.22l.82-2.63c.03-.08,0-.17-.07-.22l-2.21-1.64c-.15-.11-.07-.36.12-.36l2.75-.02c.09,0,.16-.06.19-.14ZM9.67,9.97l.9-2.6c.06-.18.32-.18.38,0l.9,2.6c.03.08.1.13.19.13l2.75.06c.19,0,.27.25.12.36l-2.19,1.66c-.07.05-.09.14-.07.22l.8,2.63c.05.18-.15.33-.31.22l-2.26-1.57c-.07-.05-.16-.05-.23,0l-2.26,1.57c-.16.11-.36-.04-.31-.22l.8-2.63c.02-.08,0-.17-.07-.22l-2.19-1.66c-.15-.11-.07-.36.12-.36l2.75-.06c.08,0,.16-.06.19-.13ZM44.17,9.97l.9-2.6c.06-.18.32-.18.38,0l.9,2.6c.03.08.1.13.19.13l2.75.06c.19,0,.27.25.12.36l-2.19,1.66c-.07.05-.09.14-.07.22l.8,2.63c.05.18-.15.33-.31.22l-2.26-1.57c-.07-.05-.16-.05-.23,0l-2.26,1.57c-.16.11-.36-.04-.31-.22l.8-2.63c.02-.08,0-.17-.07-.22l-2.19-1.66c-.15-.11-.07-.36.12-.36l2.75-.06c.08,0,.16-.06.19-.13ZM26,49.78c0,1.71.76,3.03,1.25,4.32.02.05-.05.08-.07.04,0,0-1.18-2.72-3.04-2.72-1.25,0-1.98.95-1.98,1.79,0,.69.47,1.13.9,1.15.46.03.85-.32.89-.76,0-.06.04-.12.1-.15.17-.09.58-.2,1.35.15,1.08.49,2.09,2.11,2.09,2.11.04.07.02.15-.03.2l-.32.33c-.26.26-.25.67,0,.93l.73.74c.08.08.21.08.29,0l.73-.74c.25-.26.27-.66,0-.93l-.32-.33c-.05-.05-.06-.14-.03-.2,0,0,1.01-1.62,2.09-2.11.77-.35,1.18-.24,1.35-.15.06.03.1.09.1.15.04.44.43.79.89.76.43-.03.9-.46.9-1.15,0-.84-.73-1.79-1.98-1.79-1.87,0-3.04,2.72-3.04,2.72-.03.04-.09.01-.07-.04.49-1.3,1.25-2.69,1.25-4.32,0-1.37-1.42-2.87-1.87-3.32-.08-.08-.2-.08-.28,0-.46.43-1.87,1.88-1.87,3.32ZM43.68,45.2c0,1.34.6,2.38.98,3.4.01.04-.04.06-.06.03,0,0-.92-2.14-2.39-2.14-.98,0-1.56.75-1.56,1.4,0,.54.37.89.71.91.36.02.66-.24.7-.58,0-.07.05-.12.11-.15.15-.07.47-.12,1.03.13.85.38,1.64,1.66,1.64,1.66.03.05.02.12-.02.16l-.25.26c-.2.2-.2.53,0,.73l.54.55c.08.08.21.08.29,0l.54-.55c.2-.2.22-.52,0-.73l-.25-.26s-.05-.11-.02-.16c0,0,.79-1.27,1.64-1.66.56-.26.88-.2,1.03-.13.06.03.11.08.11.15.04.34.34.6.7.58.34-.02.71-.36.71-.91,0-.66-.58-1.4-1.56-1.4-1.47,0-2.39,2.14-2.39,2.14-.02.03-.07,0-.06-.03.39-1.02.98-2.11.98-3.4,0-1.05-1.06-2.19-1.44-2.57-.08-.08-.2-.08-.28,0-.39.37-1.44,1.48-1.44,2.58ZM9.18,45.2c0,1.34.6,2.38.98,3.4.01.04-.04.06-.06.03,0,0-.92-2.14-2.39-2.14-.98,0-1.56.75-1.56,1.4,0,.54.37.89.71.91.36.02.66-.24.7-.58,0-.07.05-.12.11-.15.15-.07.47-.12,1.03.13.85.38,1.64,1.66,1.64,1.66.03.05.02.12-.02.16l-.25.26c-.2.2-.2.53,0,.73l.54.55c.08.08.21.08.29,0l.54-.55c.2-.2.22-.52,0-.73l-.25-.26s-.05-.11-.02-.16c0,0,.79-1.27,1.64-1.66.56-.26.88-.2,1.03-.13.06.03.11.08.11.15.04.34.34.6.7.58.34-.02.71-.36.71-.91,0-.66-.58-1.4-1.56-1.4-1.47,0-2.39,2.14-2.39,2.14-.02.03-.07,0-.06-.03.39-1.02.98-2.11.98-3.4,0-1.05-1.06-2.19-1.44-2.57-.08-.08-.2-.08-.28,0-.39.37-1.44,1.48-1.44,2.58Z"/><path class="cls-1" d="M56,.23c0-.13-.12-.22-.24-.2-1.95.41-15.21,3.11-27.75,3.11C14.74,3.15,2.15.43.25,0,.12-.02,0,.07,0,.2c0,3.39.02,40.15.02,47.08s6.86,9.12,27.92,16.71c.04.02.1.02.14,0,21.06-7.58,27.92-9.45,27.92-16.71V.23ZM53.62,46.31c0,6.64-6.28,8.34-25.54,15.27-.04.02-.1.02-.14,0-19.25-6.93-25.54-8.64-25.54-15.27V3.22c0-.13.11-.22.24-.2,1.94.38,15.17,2.89,25.37,2.89,9.62,0,23.39-2.5,25.37-2.86.13-.02.24.07.24.2v43.06Z"/><path class="cls-1" d="M147.45,48.41c0-3.61.03-13.01.03-14.79,0-3.89.24-11.94-12.46-11.94-4.31,0-9.19,1.56-11.65,4.9-2.45,3.34-1.09,7.22,1.55,7.22s3.97-1.99,3.97-3.8.97-5.11,5.18-5.11c2.52,0,5.85,1.83,5.85,4.74,0,.59.02,3.61.02,3.61,0,0-10.83,2.73-14,4.44-3.17,1.71-5.68,4.28-5.68,9.26s3.2,9.07,9.19,9.07,10.58-3.44,10.58-3.44c.3,1.25,1.33,2.72,4.44,2.89h5.89s0-2.5,0-2.5c-2.19,0-2.91-.49-2.91-4.53ZM139.93,49.04s-2.62,1.86-6.5,1.86-5.59-2.22-5.59-4.9c0-3.65,2.78-5.64,4.83-6.68,1.85-.94,7.25-2.56,7.25-2.56v12.29ZM181.64,45.8c0,6.39-6.54,10.17-12.64,10.17s-9.31-1.36-10.3-1.36-1.13.83-1.13.83h-2.5v-11.87h2.5c.85,2.59,3.47,9.44,10.78,9.44,3.5,0,6.49-1.36,6.49-4.33,0-3.86-4.25-5.08-8.36-6.91-4.1-1.82-11.44-4.1-11.44-10.41s7.09-9.69,13.27-9.69c4.4,0,7.79,1.38,8.08,1.38s.42-.22.42-.22h2.32v9.25s-2.51,0-2.51,0c-.3-.6-2.5-7.51-8.62-7.51-2.52,0-5.53,1.26-5.53,4.08,0,3.29,4.55,4.94,8.93,6.81,4.38,1.86,10.23,4.63,10.23,10.33ZM128,8c-4.77.74-8.7.72-13.45,0v2.53s1.6,0,1.6,0c1.39,0,3.79-.3,2.33,4.31-1.26,3.96-8.5,27.26-8.5,27.26,0,0-7.66-24.06-8.84-27.91-1.18-3.84,2.38-3.67,3.39-3.67,0,0,0-2.53,0-2.53-6.2.96-11.31.93-17.48,0,0,0,0,2.52,0,2.53,1.23,0,3.81-.56,5.64,5.07,1.88,5.81,3.03,9.33,3.03,9.33l-7.29,18.68s-8.48-23.28-9.97-27.49c-1.34-3.79.07-5.58,1.41-5.58.35,0,1.64,0,1.64,0v-2.53c-6.2.96-11.31.93-17.49,0v2.53c2.38-.19,3.94.44,5.54,4.9,1.61,4.46,14.48,40.57,14.48,40.57h3.22l10.11-26.03,8.52,26.03h3.38s12.09-39,12.96-41.59c.86-2.59,2.41-3.88,4.46-3.88h1.33v-2.53ZM195.32,26.03c2.65-2.55,6.05-4.39,10.44-4.39,7.64,0,10.79,4.92,10.79,10.14,0,7.07-.03,16.25,0,16.29v.02c0,2.19.35,3.7.96,4.3s1.13.56,2.71.56v2.5h-14.82v-2.5c1.11,0,1.99.14,2.69-.56s.96-2.12.96-4.31c0,0-.04-11.86-.04-16.2,0-3.84-2.51-5.79-5.17-5.79-5.3,0-7.79,3.85-8.5,4.92l-.02,17.07c0,2.19.28,3.63.96,4.31.67.67,1.39.57,2.7.57v2.5h-14.82v-2.5c1.05,0,2,.14,2.7-.56s.96-2.12.96-4.31V16.01c0-5.39-.67-5.53-3.81-5.53v-2.48c4,.62,7.32.64,11.34,0l-.02,18.03ZM264,8c-4.74.75-8.64.73-13.36,0v2.5c2.03,0,5-.75,5,5.56,0,1.26,0,23.28,0,23.28,0,7.75-4.86,12.94-12.74,12.94-11.74,0-11.7-10.77-11.7-16.94s0-18.95,0-19.28c0-6.08,1.74-5.56,4.17-5.56v-2.5c-5.88.94-10.71.91-16.56,0v2.5c2.43,0,4.16-.58,4.16,5.57,0,.27.05,14.62.05,19.28,0,14.1,5.45,20.56,19.88,20.56,7.44,0,16.35-4.21,16.35-17.44,0-2.42.03-16.43.03-22.39s2.32-5.56,4.72-5.56v-2.5Z"/><path class="cls-1" d="M274.96,55.43l11.09-34.95h5.95l11.14,34.95h-4.32l-2.98-9.41h-13.63l-2.98,9.41h-4.27ZM283.31,42.47h11.42l-5.71-18.15-5.71,18.15Z"/><path class="cls-1" d="M308.27,55.43v-24.15h3.41v5.28c1.15-3.12,3.36-5.76,7.06-5.76,1.06,0,2.02.24,2.98.53l-.86,3.7c-.72-.24-1.44-.43-2.4-.43-3.17,0-5.14,2.64-5.76,5.52-.29,1.2-.43,2.35-.48,3.74v11.57h-3.94Z"/><path class="cls-1" d="M331.65,34.6v13.15c0,3.17,1.34,4.85,4.03,4.85.96,0,2.16-.19,3.22-.53l.43,3.31c-1.25.34-2.83.58-4.42.58-5.04,0-7.25-2.78-7.25-8.54v-12.82h-4.18v-3.31h4.18v-6.77l3.98-.82v7.58h7.06v3.31h-7.06Z"/><path class="cls-1" d="M341.78,52.7l1.92-2.54c1.49,1.54,4.42,2.59,7.25,2.59s5.18-1.15,5.18-3.74c0-2.3-2.21-3.12-4.66-3.94l-1.78-.58c-3.89-1.25-7.15-2.88-7.15-7.1,0-4.61,4.03-6.58,8.64-6.58,3.22,0,6,1.1,7.58,2.64l-1.92,2.5c-1.15-1.15-3.31-1.97-5.47-1.97-2.69,0-4.85,1.06-4.85,3.26s2.35,3.17,4.7,3.94l1.78.58c3.84,1.25,7.1,2.79,7.1,7.11,0,4.8-4.37,7.1-9.22,7.1-3.74,0-7.2-1.3-9.12-3.26Z"/><path class="cls-1" d="M370.02,46.22c0-4.94,2.35-8.11,7.63-10.51-1.73-1.92-3.65-4.46-3.65-7.68,0-4.71,3.74-8.06,8.69-8.06s8.69,3.17,8.69,7.87c0,4.42-3.12,6.91-7.97,8.88l9.36,9.7c1.3-2.11,1.87-4.51,1.87-7.3v-1.3l3.7.58v.72c0,3.74-1.1,7.15-3.02,9.89,2.45,2.35,4.22,2.88,6.77,2.98v3.46c-3.6,0-6.19-.91-9.22-3.7-2.93,2.64-6.82,4.22-11.23,4.22-6.91,0-11.62-4.13-11.62-9.75ZM390.47,49.29l-10.8-11.14c-4.18,1.92-5.71,4.18-5.71,7.82s3.26,6.67,7.92,6.67c3.41,0,6.38-1.25,8.59-3.36ZM381.21,34.36c4.9-1.82,6.29-3.5,6.29-6.34s-2.02-4.85-4.8-4.85-4.8,2.02-4.8,4.85c0,2.45,1.34,4.27,3.31,6.34Z"/><path class="cls-1" d="M410.56,50.54l2.54-2.4c1.3,1.78,4.18,4.27,8.5,4.27,4.66,0,7.3-2.64,7.3-6.43,0-3.55-2.59-5.23-5.95-6.43l-2.45-.82c-5.38-1.73-8.64-4.18-8.64-9.75s4.18-9.02,10.71-9.02c4.85,0,8.16,2.3,10.03,4.75l-2.54,2.4c-1.2-1.68-3.94-3.6-7.49-3.6-3.98,0-6.58,2.06-6.58,5.42s2.45,4.99,5.86,6.14l2.4.86c5.38,1.68,8.78,4.46,8.78,9.98,0,5.9-4.18,10.03-11.52,10.03-5.57,0-9.26-3.17-10.94-5.42Z"/><path class="cls-1" d="M437.29,43.38c0-7.63,4.03-12.58,11.14-12.58,4.8,0,8.02,2.59,9.17,5.71l-3.5.96c-.91-1.92-2.64-3.31-5.66-3.31-4.61,0-7.2,3.46-7.2,9.22s2.54,9.22,7.1,9.22c3.17,0,4.9-1.54,6.05-3.5l3.31.96c-1.2,3.12-4.46,5.91-9.36,5.91-7.1,0-11.04-4.85-11.04-12.58Z"/><path class="cls-1" d="M462.45,24.33c0-1.49,1.25-2.74,2.78-2.74s2.78,1.25,2.78,2.74-1.25,2.78-2.78,2.78-2.78-1.25-2.78-2.78ZM463.26,55.43v-24.15h3.94v24.15h-3.94Z"/><path class="cls-1" d="M473.49,43.38c0-7.63,4.08-12.58,11.14-12.58s10.61,5.04,10.61,13.58h-17.91c.29,5.23,2.98,8.4,7.3,8.4,3.17,0,5.18-1.54,6.62-3.98l3.46,1.15c-1.92,3.65-5.09,6-10.08,6-7.1,0-11.14-4.85-11.14-12.58ZM477.42,41.32h13.87c-.34-4.46-2.78-7.39-6.67-7.39s-6.62,2.69-7.2,7.39Z"/><path class="cls-1" d="M501.52,55.43v-24.15h3.46v4.9c1.58-2.98,4.27-5.38,8.54-5.38,4.7,0,7.63,2.83,7.63,9.17v15.46h-3.98v-14.74c0-4.56-1.78-6.34-4.61-6.34-3.55,0-5.86,2.45-6.72,5.14-.19.62-.34,1.39-.38,3.02v12.91h-3.94Z"/><path class="cls-1" d="M526.76,43.38c0-7.63,4.03-12.58,11.14-12.58,4.8,0,8.02,2.59,9.17,5.71l-3.5.96c-.91-1.92-2.64-3.31-5.66-3.31-4.61,0-7.2,3.46-7.2,9.22s2.54,9.22,7.1,9.22c3.17,0,4.9-1.54,6.05-3.5l3.31.96c-1.2,3.12-4.46,5.91-9.36,5.91-7.1,0-11.04-4.85-11.04-12.58Z"/><path class="cls-1" d="M550.67,43.38c0-7.63,4.08-12.58,11.14-12.58s10.61,5.04,10.61,13.58h-17.91c.29,5.23,2.98,8.4,7.3,8.4,3.17,0,5.18-1.54,6.62-3.98l3.46,1.15c-1.92,3.65-5.09,6-10.08,6-7.1,0-11.14-4.85-11.14-12.58ZM554.6,41.32h13.87c-.34-4.46-2.78-7.39-6.67-7.39s-6.62,2.69-7.2,7.39Z"/><path class="cls-1" d="M576.2,52.7l1.92-2.54c1.49,1.54,4.42,2.59,7.25,2.59s5.18-1.15,5.18-3.74c0-2.3-2.21-3.12-4.66-3.94l-1.78-.58c-3.89-1.25-7.15-2.88-7.15-7.1,0-4.61,4.03-6.58,8.64-6.58,3.22,0,6,1.1,7.58,2.64l-1.92,2.5c-1.15-1.15-3.31-1.97-5.47-1.97-2.69,0-4.85,1.06-4.85,3.26s2.35,3.17,4.7,3.94l1.78.58c3.84,1.25,7.1,2.79,7.1,7.11,0,4.8-4.37,7.1-9.22,7.1-3.74,0-7.2-1.3-9.12-3.26Z"/></svg>